<svg width="20" height="20" viewBox="0 0 20 20" fill="none" xmlns="http://www.w3.org/2000/svg">
<path d="M7.70874 5.00033C7.01838 5.00033 6.45874 5.55997 6.45874 6.25033C6.45874 6.94068 7.01838 7.50033 7.70874 7.50033C8.3991 7.50033 8.95874 6.94068 8.95874 6.25033C8.95874 5.55997 8.3991 5.00033 7.70874 5.00033Z" fill="#1E1E1E"/>
<path d="M12.2921 5.00033C11.6017 5.00033 11.0421 5.55997 11.0421 6.25033C11.0421 6.94068 11.6017 7.50033 12.2921 7.50033C12.9824 7.50033 13.5421 6.94068 13.5421 6.25033C13.5421 5.55997 12.9824 5.00033 12.2921 5.00033Z" fill="#1E1E1E"/>
<path d="M6.64313 9.76891C6.99933 9.48098 7.5207 9.53467 7.81087 9.88797L7.81156 9.88878C7.81401 9.89163 7.82002 9.89856 7.82954 9.90899C7.84863 9.92991 7.88149 9.96456 7.92767 10.0085C8.02051 10.0968 8.16403 10.2196 8.35442 10.3434C8.73442 10.5906 9.28714 10.8337 10.0003 10.8337C10.7135 10.8337 11.2662 10.5906 11.6462 10.3434C11.8366 10.2196 11.9801 10.0968 12.073 10.0085C12.1192 9.96456 12.152 9.92991 12.1711 9.90899C12.1806 9.89856 12.1866 9.89163 12.1891 9.88878L12.1898 9.88799C12.4799 9.53468 13.0013 9.48098 13.3575 9.76891C13.7155 10.0582 13.7711 10.5829 13.4817 10.9409C13.4613 10.9656 13.4239 11.0087 13.4023 11.0324C13.359 11.0799 13.2986 11.1429 13.2216 11.2161C13.068 11.3622 12.845 11.5519 12.5549 11.7406C11.974 12.1184 11.1101 12.5003 10.0003 12.5003C8.89059 12.5003 8.02665 12.1184 7.44571 11.7406C7.15563 11.5519 6.93262 11.3622 6.77904 11.2161C6.70201 11.1429 6.64169 11.0799 6.5984 11.0324C6.57673 11.0087 6.51891 10.9409 6.51891 10.9409C6.22959 10.5829 6.2852 10.0582 6.64313 9.76891Z" fill="#1E1E1E"/>
<path fill-rule="evenodd" clip-rule="evenodd" d="M6.46599 1.66699C5.79519 1.66698 5.24154 1.66697 4.79055 1.70382C4.32214 1.74209 3.89155 1.82423 3.4871 2.0303C2.8599 2.34988 2.34996 2.85982 2.03038 3.48703C1.82431 3.89147 1.74217 4.32206 1.7039 4.79047C1.66705 5.24147 1.66706 5.7951 1.66707 6.46591L1.66703 11.7816C1.66667 12.4445 1.66641 12.9367 1.78065 13.3631C2.08888 14.5134 2.98737 15.4119 4.13768 15.7201C4.3939 15.7887 4.6739 15.816 5.00041 15.8268L5.0004 16.9761C5.00036 17.1722 5.00033 17.372 5.0152 17.5358C5.02943 17.6924 5.0671 17.988 5.27348 18.2465C5.51096 18.5441 5.87108 18.7171 6.25176 18.7167C6.58257 18.7164 6.83694 18.5611 6.96813 18.4744C7.1053 18.3837 7.26132 18.2588 7.41439 18.1363L9.42533 16.5276C9.85748 16.1819 9.98578 16.0842 10.1191 16.0161C10.2528 15.9478 10.3952 15.8979 10.5423 15.8677C10.6889 15.8376 10.8501 15.8337 11.4035 15.8337H13.5348C14.2056 15.8337 14.7593 15.8337 15.2103 15.7968C15.6787 15.7586 16.1093 15.6764 16.5137 15.4703C17.1409 15.1508 17.6509 14.6408 17.9704 14.0136C18.1765 13.6092 18.2586 13.1786 18.2969 12.7102C18.3338 12.2592 18.3338 11.7056 18.3337 11.0348V6.46589C18.3338 5.79509 18.3338 5.24146 18.2969 4.79047C18.2586 4.32206 18.1765 3.89147 17.9704 3.48703C17.6509 2.85982 17.1409 2.34988 16.5137 2.0303C16.1093 1.82423 15.6787 1.74209 15.2103 1.70382C14.7593 1.66697 14.2056 1.66698 13.5348 1.66699H6.46599ZM4.24376 3.51532C4.37409 3.44891 4.56092 3.3948 4.92627 3.36495C5.30135 3.33431 5.78659 3.33366 6.50041 3.33366H13.5004C14.2142 3.33366 14.6995 3.33431 15.0745 3.36495C15.4399 3.3948 15.6267 3.44891 15.7571 3.51532C16.0707 3.6751 16.3256 3.93007 16.4854 4.24368C16.5518 4.37401 16.6059 4.56085 16.6358 4.92619C16.6664 5.30127 16.6671 5.78651 16.6671 6.50033V11.0003C16.6671 11.7141 16.6664 12.1994 16.6358 12.5745C16.6059 12.9398 16.5518 13.1266 16.4854 13.257C16.3256 13.5706 16.0707 13.8255 15.7571 13.9853C15.6267 14.0517 15.4399 14.1058 15.0745 14.1357C14.6995 14.1663 14.2142 14.167 13.5004 14.167L11.3317 14.167C10.8811 14.1668 10.5405 14.1666 10.2072 14.2351C9.91301 14.2954 9.62831 14.3953 9.36085 14.5319C9.05787 14.6867 8.79199 14.8996 8.44027 15.1812L6.66707 16.5998V15.0003C6.66707 14.5401 6.29398 14.167 5.83374 14.167C5.00511 14.167 4.75427 14.1598 4.56904 14.1102C3.99389 13.9561 3.54464 13.5068 3.39053 12.9317C3.3409 12.7465 3.33374 12.4956 3.33374 11.667V6.50033C3.33374 5.78651 3.33439 5.30127 3.36503 4.92619C3.39488 4.56085 3.44899 4.37401 3.5154 4.24368C3.67518 3.93007 3.93015 3.6751 4.24376 3.51532Z" fill="#1E1E1E"/>
</svg>
