<svg width="20" height="20" viewBox="0 0 20 20" fill="none" xmlns="http://www.w3.org/2000/svg">
<path fill-rule="evenodd" clip-rule="evenodd" d="M1.3749 8.80223C6.74359 6.46318 10.3236 4.92113 12.1148 4.17609C17.2292 2.04885 18.2919 1.67932 18.9846 1.66712C19.1369 1.66444 19.4776 1.70219 19.6982 1.88124C19.8845 2.03241 19.9358 2.23663 19.9603 2.37997C19.9848 2.5233 20.0154 2.84982 19.9911 3.10495C19.714 6.01699 18.5147 13.0837 17.9046 16.3453C17.6465 17.7253 17.1382 18.1881 16.6461 18.2333C15.5766 18.3318 14.7645 17.5266 13.7287 16.8476C12.1078 15.7851 11.1921 15.1237 9.61879 14.0869C7.80053 12.8887 8.97923 12.2301 10.0154 11.1539C10.2866 10.8722 14.9987 6.58619 15.0899 6.19739C15.1013 6.14876 15.1119 5.9675 15.0042 5.87179C14.8965 5.77608 14.7376 5.80881 14.6229 5.83484C14.4604 5.87174 11.871 7.5832 6.85486 10.9692C6.11988 11.4739 5.45416 11.7198 4.8577 11.7069C4.20015 11.6927 2.93528 11.3352 1.99498 11.0295C0.84166 10.6546 -0.074973 10.4564 0.00484519 9.8197C0.0464194 9.48807 0.503103 9.14892 1.3749 8.80223Z" fill="#1E1E1E"/>
</svg>
